<svg width="42" height="42" viewBox="0 0 42 42" fill="none" xmlns="http://www.w3.org/2000/svg">
<path d="M3 21C3 21.6667 3.57885 22.2043 4.27121 22.2043H11.2288V28.7957C11.2288 29.4516 11.8076 30 12.5 30C13.1924 30 13.7712 29.4516 13.7712 28.7957V22.2043H20.7288C21.4211 22.2043 22 21.6667 22 21C22 20.3441 21.4211 19.7957 20.7288 19.7957H13.7712V13.2043C13.7712 12.5484 13.1924 12 12.5 12C11.8076 12 11.2288 12.5484 11.2288 13.2043V19.7957H4.27121C3.57885 19.7957 3 20.3441 3 21Z" fill="#1A1B22"/>
</svg>
