<svg width="34" height="34" viewBox="0 0 34 34" fill="none" xmlns="http://www.w3.org/2000/svg">
<path d="M11.7245 16.8276C11.7245 17.2056 12.0482 17.5105 12.4354 17.5105H16.3262V21.2481C16.3262 21.62 16.6499 21.9309 17.037 21.9309C17.4242 21.9309 17.7479 21.62 17.7479 21.2481V17.5105H21.6387C22.0258 17.5105 22.3495 17.2056 22.3495 16.8276C22.3495 16.4557 22.0258 16.1447 21.6387 16.1447H17.7479V12.4071C17.7479 12.0352 17.4242 11.7242 17.037 11.7242C16.6499 11.7242 16.3262 12.0352 16.3262 12.4071V16.1447H12.4354C12.0482 16.1447 11.7245 16.4557 11.7245 16.8276Z" fill="#1A1B22"/>
</svg>
